<mxfile host="drawio-plugin" modified="2025-03-04T11:47:29.926Z" agent="Mozilla/5.0 (X11; Linux x86_64) AppleWebKit/537.36 (KHTML, like Gecko) Chrome/122.0.0.0 Safari/537.36" version="22.1.22" etag="YhgyRBsd7Yjzie2_WcUh" type="embed">
  <diagram id="0" name="Page-1">
    <mxGraphModel dx="925" dy="379" grid="1" gridSize="10" guides="1" tooltips="1" connect="1" arrows="1" fold="1" page="1" pageScale="1" pageWidth="4000" pageHeight="4000" math="0" shadow="0">
      <root>
        <mxCell id="0" />
        <mxCell id="1" parent="0" />
        <mxCell id="6525473697198406563" value="Webex EQ CODEC, CS-CODEC-EQ-NR++" style="rounded=0;whiteSpace=wrap;html=1;" parent="1" connectable="" vertex="1">
          <mxGeometry x="3000" y="3000" width="200" height="1200" as="geometry" />
        </mxCell>
        <mxCell id="7487794004865928871" value="Webex EQ CODEC, CS-CODEC-EQ-NR++" style="rounded=0;whiteSpace=wrap;html=1;" parent="1" connectable="" vertex="1">
          <mxGeometry x="3400" y="3020" width="160" height="80" as="geometry" />
        </mxCell>
        <mxCell id="5471029337993091301" value="Webex EQ CODEC, CS-CODEC-EQ-NR++" style="rounded=0;whiteSpace=wrap;html=1;" parent="1" connectable="" vertex="1">
          <mxGeometry x="3400" y="3140" width="160" height="80" as="geometry" />
        </mxCell>
        <mxCell id="4077259871284183100" value="DA HD 4K Plus, 60-1607-01" style="rounded=0;whiteSpace=wrap;html=1;" parent="1" connectable="" vertex="1">
          <mxGeometry x="3400" y="3260" width="160" height="80" as="geometry" />
        </mxCell>
        <mxCell id="8278654897433548411" value="232-ATSC 4K HDTV, 5114-001" style="rounded=0;whiteSpace=wrap;html=1;" parent="1" connectable="" vertex="1">
          <mxGeometry x="3400" y="3380" width="160" height="80" as="geometry" />
        </mxCell>
        <mxCell id="4065202982088438996" value="DTP 4K 230 Tx, 60-1271-12" style="rounded=0;whiteSpace=wrap;html=1;" parent="1" connectable="" vertex="1">
          <mxGeometry x="3400" y="3740" width="160" height="80" as="geometry" />
        </mxCell>
        <mxCell id="2226184137713783173" value="DTP 4K 230 Tx, 60-1271-12" style="rounded=0;whiteSpace=wrap;html=1;" parent="1" connectable="" vertex="1">
          <mxGeometry x="3400" y="3860" width="160" height="80" as="geometry" />
        </mxCell>
        <mxCell id="4492092454410504505" value="DTP 4K 230 Tx, 60-1271-12" style="rounded=0;whiteSpace=wrap;html=1;" parent="1" connectable="" vertex="1">
          <mxGeometry x="3400" y="3980" width="160" height="80" as="geometry" />
        </mxCell>
        <mxCell id="1335467715533035719" value="DTP 4K 230 Tx, 60-1271-12" style="rounded=0;whiteSpace=wrap;html=1;" parent="1" connectable="" vertex="1">
          <mxGeometry x="3400" y="4100" width="160" height="80" as="geometry" />
        </mxCell>
        <mxCell id="8278654897433549000" value="232-ATSC 4K HDTV, 5114-001" style="rounded=0;whiteSpace=wrap;html=1;" connectable="" vertex="1" parent="1">
          <mxGeometry x="3400" y="3500" width="160" height="80" as="geometry" />
        </mxCell>
      </root>
    </mxGraphModel>
  </diagram>
</mxfile>
